# xmcd
#
# Track frame offsets: 
#        150
#        11307
#        19535
#        30965
#        42847
#        53367
#        64640
#        79307
#        90567
#        100657
#        111952
#        123495
#        138717
#        153330
#        167345
#        179532
#
# Disc length: 2518 seconds
#
# Revision: 4
# Processed by: cddbd v1.5.2PL0 Copyright (c) Steve Scherf et al.
# Submitted via: ExactAudioCopy v1.0b3
#
DISCID=b709d410
DTITLE=Don Gibson - The Very Best of Don Gibson
DYEAR=1997
DGENRE=Country
TTITLE0=Oh, Lonesome Me [Re-Recording]
TTITLE1=Blue Blue Day [Re-Recording]
TTITLE2=Give Myself a Party [Re-Recording]
TTITLE3=I Can't Stop Loving You [Re-Recording]
TTITLE4=Who Cares [Re-Recording]
TTITLE5=Just One Time [Re-Recording]
TTITLE6=Sweet Dreams [Re-Recording]
TTITLE7=Sea of Heartbreak [Re-Recording]
TTITLE8=Lonesome Number One [Re-Recording]
TTITLE9=I Can Mend Your Broken Heart [Re-Recording]
TTITLE10=Country Green [Re-Recording]
TTITLE11=Woman (Sensuous Woman) [Re-Recording]
TTITLE12=Touch the Morning [Re-Recording]
TTITLE13=One Day at a Time [Re-Recording]
TTITLE14=Bring Back Your Love to Me [Re-Recording]
TTITLE15=I Need Thee Every Hour [Re-Recording]
EXTD=CDDBSort:gibson_don,very_best_of_don_gibson - YEAR: 1997
EXTT0=
EXTT1=
EXTT2=
EXTT3=
EXTT4=
EXTT5=
EXTT6=
EXTT7=
EXTT8=
EXTT9=
EXTT10=
EXTT11=
EXTT12=
EXTT13=
EXTT14=
EXTT15=
PLAYORDER=
